<?xml version="1.0" encoding="UTF-8" standalone="no"?>
<!-- Created with Inkscape (http://www.inkscape.org/) -->

<svg
   version="1.1"
   id="svg1"
   width="800"
   height="800"
   viewBox="0 0 800 800"
   sodipodi:docname="a-beach.svg"
   inkscape:version="1.3.2 (091e20e, 2023-11-25, custom)"
   xmlns:inkscape="http://www.inkscape.org/namespaces/inkscape"
   xmlns:sodipodi="http://sodipodi.sourceforge.net/DTD/sodipodi-0.dtd"
   xmlns="http://www.w3.org/2000/svg"
   xmlns:svg="http://www.w3.org/2000/svg">
  <defs
     id="defs1">
    <clipPath
       clipPathUnits="userSpaceOnUse"
       id="clipPath4">
      <path
         d="M 0,600 H 600 V 0 H 0 Z"
         transform="translate(-88.397005,-477.16551)"
         id="path4" />
    </clipPath>
    <clipPath
       clipPathUnits="userSpaceOnUse"
       id="clipPath6">
      <path
         d="M 0,600 H 600 V 0 H 0 Z"
         transform="translate(-599.00002,-374.67821)"
         id="path6" />
    </clipPath>
    <clipPath
       clipPathUnits="userSpaceOnUse"
       id="clipPath8">
      <path
         d="M 0,600 H 600 V 0 H 0 Z"
         id="path8" />
    </clipPath>
    <clipPath
       clipPathUnits="userSpaceOnUse"
       id="clipPath10">
      <path
         d="M 0,600 H 600 V 0 H 0 Z"
         transform="translate(0,-117.8418)"
         id="path10" />
    </clipPath>
    <clipPath
       clipPathUnits="userSpaceOnUse"
       id="clipPath12">
      <path
         d="M 0,600 H 600 V 0 H 0 Z"
         transform="translate(-161.66211,-279.35061)"
         id="path12" />
    </clipPath>
    <clipPath
       clipPathUnits="userSpaceOnUse"
       id="clipPath14">
      <path
         d="M 0,600 H 600 V 0 H 0 Z"
         transform="translate(-599.00002,-283.6504)"
         id="path14" />
    </clipPath>
    <clipPath
       clipPathUnits="userSpaceOnUse"
       id="clipPath16">
      <path
         d="M 0,600 H 600 V 0 H 0 Z"
         transform="translate(-599.00002,-283.6504)"
         id="path16" />
    </clipPath>
    <clipPath
       clipPathUnits="userSpaceOnUse"
       id="clipPath18">
      <path
         d="M 0,600 H 600 V 0 H 0 Z"
         transform="translate(-599.00002,-283.6504)"
         id="path18" />
    </clipPath>
    <clipPath
       clipPathUnits="userSpaceOnUse"
       id="clipPath20">
      <path
         d="M 0,600 H 600 V 0 H 0 Z"
         transform="translate(-599.00002,-283.6504)"
         id="path20" />
    </clipPath>
    <clipPath
       clipPathUnits="userSpaceOnUse"
       id="clipPath22">
      <path
         d="M 0,600 H 600 V 0 H 0 Z"
         transform="translate(-599.00002,-99.317402)"
         id="path22" />
    </clipPath>
    <clipPath
       clipPathUnits="userSpaceOnUse"
       id="clipPath24">
      <path
         d="M 0,600 H 600 V 0 H 0 Z"
         transform="translate(-439.03911,-283.6504)"
         id="path24" />
    </clipPath>
    <clipPath
       clipPathUnits="userSpaceOnUse"
       id="clipPath26">
      <path
         d="M 0,600 H 600 V 0 H 0 Z"
         transform="translate(-374.92191,-283.6504)"
         id="path26" />
    </clipPath>
    <clipPath
       clipPathUnits="userSpaceOnUse"
       id="clipPath28">
      <path
         d="M 0,600 H 600 V 0 H 0 Z"
         transform="translate(-93.377402,-553.13531)"
         id="path28" />
    </clipPath>
    <clipPath
       clipPathUnits="userSpaceOnUse"
       id="clipPath30">
      <path
         d="M 0,600 H 600 V 0 H 0 Z"
         transform="translate(-263.9287,-283.6504)"
         id="path30" />
    </clipPath>
    <clipPath
       clipPathUnits="userSpaceOnUse"
       id="clipPath32">
      <path
         d="M 0,600 H 600 V 0 H 0 Z"
         transform="translate(-512.31451,-444.02641)"
         id="path32" />
    </clipPath>
  </defs>
  <sodipodi:namedview
     id="namedview1"
     pagecolor="#ffffff"
     bordercolor="#000000"
     borderopacity="0.25"
     inkscape:showpageshadow="2"
     inkscape:pageopacity="0.0"
     inkscape:pagecheckerboard="0"
     inkscape:deskcolor="#d1d1d1"
     inkscape:zoom="0.7625"
     inkscape:cx="399.34426"
     inkscape:cy="295.08197"
     inkscape:window-width="1440"
     inkscape:window-height="830"
     inkscape:window-x="-6"
     inkscape:window-y="-6"
     inkscape:window-maximized="1"
     inkscape:current-layer="g1">
    <inkscape:page
       x="0"
       y="0"
       inkscape:label="1"
       id="page1"
       width="800"
       height="800"
       margin="1.3333334 1.3333334 0 0"
       bleed="0" />
  </sodipodi:namedview>
  <g
     id="g1"
     inkscape:groupmode="layer"
     inkscape:label="1">
    <g
       id="group-MC0">
      <path
         id="path2"
         d="M 0,1 H 599 V 600 H 0 Z"
         style="fill:#c8edf1;fill-opacity:1;fill-rule:nonzero;stroke:none"
         transform="matrix(1.3333333,0,0,-1.3333333,0,800)" />
      <path
         id="path3"
         d="m 0,0 14.813,-3.852 c 19.556,-5.086 40.085,-5.086 59.642,0 25.823,6.715 52.934,6.715 78.758,0 43.658,-11.354 90.069,1.083 122.202,32.744 6.648,6.549 9.273,16.159 6.88,25.179 -2.393,9.02 -9.438,16.064 -18.458,18.457 -9.019,2.393 -18.63,-0.233 -25.178,-6.879 -9.796,-9.943 -23.171,-15.541 -37.129,-15.541 -13.957,0 -27.332,5.598 -37.128,15.541 C 152.025,78.21 135.126,85.283 117.492,85.283 99.858,85.283 82.958,78.21 70.58,65.649 60.474,55.391 46.678,49.616 32.279,49.616 c -14.401,0 -28.198,5.775 -38.304,16.033 z"
         style="fill:#edf9fc;fill-opacity:1;fill-rule:evenodd;stroke:none"
         transform="matrix(1.3333333,0,0,-1.3333333,117.86267,163.77933)"
         clip-path="url(#clipPath4)" />
      <path
         id="path5"
         d="m 0,0 -7.066,5.653 c -21.763,17.411 -52.69,17.411 -74.453,0 -21.638,-17.312 -52.386,-17.312 -74.026,0 -43.654,34.924 -105.684,34.924 -149.339,0 -22.202,-17.764 -50.822,-25.432 -78.932,-21.15 l -24.787,-75.531 H 0 Z"
         style="fill:#edf9fc;fill-opacity:1;fill-rule:evenodd;stroke:none"
         transform="matrix(1.3333333,0,0,-1.3333333,798.66667,300.42907)"
         clip-path="url(#clipPath6)" />
      <path
         id="path7"
         d="M 0,1 H 599 V 283.65 H 0 Z"
         style="fill:#f6caa0;fill-opacity:1;fill-rule:evenodd;stroke:none"
         transform="matrix(1.3333333,0,0,-1.3333333,0,800)"
         clip-path="url(#clipPath8)" />
      <path
         id="path9"
         d="M 0,0 V 90.363 C 47.235,77.987 75.499,62.279 75.499,45.184 75.499,28.088 47.24,12.378 0,0 M 169.81,-116.842 H 0 v 97.508 c 23.513,-6.976 36.765,-14.861 36.765,-23.21 0,-6.705 -8.548,-13.111 -24.092,-18.988 99.152,-9.055 165.358,-25.406 165.358,-44.072 0,-3.861 -2.853,-7.621 -8.221,-11.238"
         style="fill:#e4b17d;fill-opacity:1;fill-rule:evenodd;stroke:none"
         transform="matrix(1.3333333,0,0,-1.3333333,0,642.8776)"
         clip-path="url(#clipPath10)" />
      <path
         id="path11"
         d="M 0,0 H 437.338 L 416.954,-278.351 H 111.311 c -17.924,6.239 -27.551,13.128 -26.834,20.377 0.653,6.603 9.826,12.912 25.943,18.701 -98.268,8.914 -162.877,25.016 -161.056,43.399 1.562,15.779 51.729,29.877 129.165,39.193 -52.597,12.565 -83.668,29.091 -81.873,47.201 0.066,0.669 0.186,1.336 0.342,2.002 -48.315,12.334 -76.54,28.18 -74.828,45.466 1.267,12.786 18.766,24.785 48.329,35.158 -17.487,3.404 -27.198,7.277 -26.792,11.386 C -55.712,-9.607 -34.654,-4.226 0,0"
         style="fill:#e4b17d;fill-opacity:1;fill-rule:evenodd;stroke:none"
         transform="matrix(1.3333333,0,0,-1.3333333,215.54947,427.53253)"
         clip-path="url(#clipPath12)" />
      <path
         id="path13"
         d="m 0,0 v -282.65 h -291.251 c -21.896,6.78 -34.176,14.388 -34.176,22.427 0,6.706 8.548,13.112 24.092,18.989 -99.152,9.052 -165.357,25.405 -165.357,44.071 0,16.022 48.768,30.338 125.283,39.798 -53.842,12.76 -86.549,29.542 -86.549,47.929 0,0.681 0.054,1.36 0.143,2.035 -49.537,12.524 -79.332,28.614 -79.332,46.168 0,12.984 16.31,25.168 44.847,35.701 -17.825,3.456 -27.921,7.387 -27.921,11.563 0,5.175 15.509,9.983 42.063,13.969 z"
         style="fill:#ffffff;fill-opacity:1;fill-rule:evenodd;stroke:none"
         transform="matrix(1.3333333,0,0,-1.3333333,798.66667,421.79947)"
         clip-path="url(#clipPath14)" />
      <path
         id="path15"
         d="m 0,0 v -282.65 h -253.018 c -27.475,7.408 -43.143,15.934 -43.143,25.009 0,6.706 8.548,13.112 24.091,18.989 -99.152,9.052 -165.358,25.405 -165.358,44.072 0,16.021 48.77,30.338 125.284,39.797 -53.841,12.76 -86.55,29.542 -86.55,47.931 0,0.679 0.054,1.357 0.143,2.034 -49.536,12.523 -79.33,28.615 -79.33,46.167 0,12.984 16.309,25.168 44.845,35.7 -17.824,3.457 -27.919,7.39 -27.919,11.562 0,4.104 9.745,7.975 27.007,11.389 z"
         style="fill:#54c6c8;fill-opacity:1;fill-rule:evenodd;stroke:none"
         transform="matrix(1.3333333,0,0,-1.3333333,798.66667,421.79947)"
         clip-path="url(#clipPath16)" />
      <path
         id="path17"
         d="m 0,0 v -282.65 h -29.095 c -100.415,11.16 -172.526,30.644 -182.77,52.815 -9.004,19.493 31.718,36.908 102.916,48.417 -61.014,15.523 -103.153,35.939 -113.488,58.311 -0.382,0.828 -0.71,1.651 -1,2.473 -56.576,15.238 -95.415,34.813 -105.28,56.166 -7.299,15.797 2.165,30.62 24.781,43.433 -19.765,4.205 -32.074,8.991 -34.419,14.068 -1.107,2.397 0.065,4.73 3.284,6.967 z"
         style="fill:#ebf8fb;fill-opacity:1;fill-rule:evenodd;stroke:none"
         transform="matrix(1.3333333,0,0,-1.3333333,798.66667,421.79947)"
         clip-path="url(#clipPath18)" />
      <path
         id="path19"
         d="m 0,0 v -272.03 c -90.535,11.423 -154.382,29.828 -163.973,50.59 -9.006,19.492 31.718,36.908 102.914,48.417 -61.011,15.522 -103.152,35.938 -113.488,58.31 -0.382,0.826 -0.71,1.652 -1,2.474 -56.576,15.235 -95.414,34.811 -105.28,56.166 -7.297,15.797 2.165,30.619 24.782,43.432 -17.906,3.809 -29.69,8.094 -33.493,12.641 z"
         style="fill:#42acb3;fill-opacity:1;fill-rule:evenodd;stroke:none"
         transform="matrix(1.3333333,0,0,-1.3333333,798.66667,421.79947)"
         clip-path="url(#clipPath20)" />
      <path
         id="path21"
         d="m 0,0 v -65.246 c -27.257,8.463 -44.819,18.019 -49.495,28.139 C -55.909,-23.224 -37.086,-10.394 0,0 m 0,184.333 v -156.3 c -31.785,12.383 -53.118,26.542 -60.067,41.587 -0.384,0.826 -0.709,1.651 -1,2.474 -56.577,15.235 -95.413,34.811 -105.281,56.166 -7.298,15.797 2.165,30.619 24.782,43.432 -17.904,3.809 -29.69,8.094 -33.494,12.641 z"
         style="fill:#3899a3;fill-opacity:1;fill-rule:evenodd;stroke:none"
         transform="matrix(1.3333333,0,0,-1.3333333,798.66667,667.5768)"
         clip-path="url(#clipPath22)" />
      <path
         id="path23"
         d="m 0,0 -55.947,9.906 -51.646,51.644 -45.618,-9.467 -71.443,75.746 -50.784,7.746 -57.669,64.556 -12.555,69.354 -33.986,46.865 h -59.391 V 0 Z"
         style="fill:#678283;fill-opacity:1;fill-rule:evenodd;stroke:none"
         transform="matrix(1.3333333,0,0,-1.3333333,585.38547,421.79947)"
         clip-path="url(#clipPath24)" />
      <path
         id="path25"
         d="m 0,0 -47.777,30.994 -11.621,-21.518 -98.985,5.595 -3.443,32.278 -24.962,45.619 -6.887,-41.745 -63.694,8.175 v 1.292 l -34.43,46.049 -13.772,83.493 -20.658,-38.302 -5.165,62.834 12.051,-15.924 -14.202,69.72 -18.076,47.79 h -15.923 l 6.024,-49.511 -13.402,-53.366 V 111.905 l 16.845,47.771 24.101,-108.453 -27.544,24.962 -13.402,-46.052 V 0 Z"
         style="fill:#445c60;fill-opacity:1;fill-rule:evenodd;stroke:none"
         transform="matrix(1.3333333,0,0,-1.3333333,499.89587,421.79947)"
         clip-path="url(#clipPath26)" />
      <path
         id="path27"
         d="m 0,0 -66.306,46.865 h 32.32 z m 192.451,-217.402 -73.053,51.05 -47.771,4.304 -1.403,28.138 -67.671,26.092 10.002,38.464 57.669,-64.556 50.784,-7.746 z"
         style="fill:#8ba3a2;fill-opacity:1;fill-rule:evenodd;stroke:none"
         transform="matrix(1.3333333,0,0,-1.3333333,124.5032,62.486267)"
         clip-path="url(#clipPath28)" />
      <path
         id="path29"
         d="m 0,0 -75.469,6.731 -43.898,28.834 -9.467,-16.783 -40.455,1.292 3.442,21.087 -30.986,34.43 9.468,-41.316 -17.645,-24.532 h -58.919 V 0 Z"
         style="fill:#324346;fill-opacity:1;fill-rule:evenodd;stroke:none"
         transform="matrix(1.3333333,0,0,-1.3333333,351.90493,421.79947)"
         clip-path="url(#clipPath30)" />
      <path
         id="path31"
         d="m 0,0 c 29.631,0 53.797,24.167 53.797,53.797 0,29.631 -24.166,53.797 -53.797,53.797 -29.63,0 -53.796,-24.166 -53.796,-53.797 C -53.796,24.167 -29.63,0 0,0"
         style="fill:#f9de1c;fill-opacity:1;fill-rule:evenodd;stroke:none"
         transform="matrix(1.3333333,0,0,-1.3333333,683.086,207.9648)"
         clip-path="url(#clipPath32)" />
    </g>
  </g>
</svg>
